<svg id="Layer_1" height="25" viewBox="0 0 128 128" width="25" xmlns="http://www.w3.org/2000/svg" data-name="Layer 1"><path d="m121.5 64c0 .59-.01 1.17-.03 1.75a57.176 57.176 0 0 1 -9.67 30.21c-.65.98-1.33 1.93-2.04 2.86a57.325 57.325 0 0 1 -42.92 22.61c-.94.05-1.89.07-2.84.07s-1.9-.02-2.84-.07a57.325 57.325 0 0 1 -42.92-22.61c-.71-.93-1.39-1.88-2.04-2.86a57.176 57.176 0 0 1 -9.67-30.21c-.02-.58-.03-1.16-.03-1.75s.01-1.17.03-1.75a57.176 57.176 0 0 1 9.67-30.21c.65-.98 1.33-1.93 2.04-2.86a57.324 57.324 0 0 1 42.92-22.61c.94-.05 1.89-.07 2.84-.07s1.9.02 2.84.07a57.324 57.324 0 0 1 42.92 22.61c.71.93 1.39 1.88 2.04 2.86a57.176 57.176 0 0 1 9.67 30.21c.02.58.03 1.16.03 1.75z" fill="#4e8ed5"/><g fill="#f2f2f2"><path d="m111.8 32.04c-12.16 8.21-29.28 12.85-47.8 12.85s-35.64-4.64-47.8-12.85c.65-.98 1.33-1.93 2.04-2.86 11.51 7.7 28.24 12.21 45.76 12.21s34.25-4.51 45.76-12.21c.71.93 1.39 1.88 2.04 2.86z"/><path d="m111.8 95.96c-.65.98-1.33 1.93-2.04 2.86-11.51-7.7-28.24-12.21-45.76-12.21s-34.25 4.51-45.76 12.21c-.71-.93-1.39-1.88-2.04-2.86 12.16-8.21 29.28-12.85 47.8-12.85s35.64 4.64 47.8 12.85z"/><path d="m121.5 64c0 .59-.01 1.17-.03 1.75h-114.94c-.02-.58-.03-1.16-.03-1.75s.01-1.17.03-1.75h114.94c.02.58.03 1.16.03 1.75z"/><path d="m78.25 8.28a57.117 57.117 0 0 0 -11.41-1.71c15.77 2.66 28.17 27.4 28.17 57.43s-12.4 54.77-28.17 57.43a57.117 57.117 0 0 0 11.41-1.71c11.94-9.63 20.26-30.98 20.26-55.72s-8.32-46.09-20.26-55.72zm-17.09-1.71a57.117 57.117 0 0 0 -11.41 1.71c-11.94 9.63-20.26 30.98-20.26 55.72s8.32 46.09 20.26 55.72a57.117 57.117 0 0 0 11.41 1.71c-15.77-2.66-28.17-27.4-28.17-57.43s12.4-54.77 28.17-57.43z"/></g></svg>